<svg width="20" height="20" viewBox="0 0 20 20" fill="none" xmlns="http://www.w3.org/2000/svg">
<path d="M6.66668 2.5C4.82501 2.5 3.33334 3.99167 3.33334 5.83333V11.6667C3.33334 12.5833 4.08334 13.3333 5.00001 13.3333H7.50001V16.6667C7.50001 17.5833 8.25001 18.3333 9.16668 18.3333H10.8333C11.75 18.3333 12.5 17.5833 12.5 16.6667V13.3333H15C15.9167 13.3333 16.6667 12.5833 16.6667 11.6667V2.5H6.66668ZM6.66668 4.16667H10V5.83333H11.6667V4.16667H12.5V7.5H14.1667V4.16667H15V8.33333H5.00001V5.83333C5.00001 4.91667 5.75001 4.16667 6.66668 4.16667ZM5.00001 11.6667V10H15V11.6667H5.00001Z" fill="black"/>
</svg>
